<?xml version="1.0" encoding="utf-8"?>
<!-- Generator: Adobe Illustrator 20.0.0, SVG Export Plug-In . SVG Version: 6.00 Build 0)  -->
<svg version="1.1" id="Layer_1" xmlns="http://www.w3.org/2000/svg" xmlns:xlink="http://www.w3.org/1999/xlink" x="0px" y="0px"
	 viewBox="0 0 64 64" style="enable-background:new 0 0 64 64;" xml:space="preserve">
<style type="text/css">
	.st0{display:none;}
	.st1{display:inline;fill:#D1A982;}
	.st2{display:inline;}
	.st3{fill:#AFD048;stroke:#6B9311;stroke-width:3;stroke-miterlimit:10;}
	.st4{fill:none;stroke:#6B9311;stroke-miterlimit:10;}
	.st5{fill:#AFD048;}
	.st6{fill:#F40000;stroke:#BA0D0D;stroke-width:3;stroke-miterlimit:10;}
	.st7{fill:none;stroke:#FFFFFF;stroke-linecap:round;stroke-linejoin:round;stroke-miterlimit:10;}
	.st8{fill:#CDA347;stroke:#A2690C;stroke-width:3;stroke-miterlimit:10;}
	.st9{fill:#A2CC62;}
	.st10{fill:#68664C;stroke:#522B25;stroke-width:3;stroke-linecap:round;stroke-linejoin:round;stroke-miterlimit:10;}
	.st11{fill:#B63E34;stroke:#522B25;stroke-width:3;stroke-miterlimit:10;}
	.st12{fill:#ADD481;}
	.st13{fill:#68664C;}
	.st14{fill:#593156;stroke:#331E31;stroke-width:3;stroke-miterlimit:10;}
	.st15{fill:none;stroke:#FFFFFF;stroke-linecap:round;stroke-miterlimit:10;}
	.st16{fill:#22B573;stroke:#184C28;stroke-width:3;stroke-linecap:round;stroke-linejoin:round;stroke-miterlimit:10;}
	.st17{fill:#EE0000;}
	.st18{fill:#9A0601;}
	.st19{fill:#EE0000;stroke:#9A0601;stroke-linecap:round;stroke-linejoin:round;stroke-miterlimit:10;}
	.st20{fill:#FFFFFF;}
	.st21{clip-path:url(#SVGID_2_);}
	.st22{fill:#00FFFF;}
	.st23{fill:#456A0A;}
	.st24{fill:#183300;}
	.st25{fill:#88A501;}
	.st26{fill:#3B6700;}
	.st27{fill:#FC4100;}
	.st28{fill:#9F0500;}
	.st29{fill:none;stroke:#6B9311;stroke-width:3;stroke-linecap:round;stroke-miterlimit:10;}
	.st30{fill:#6B9311;}
	.st31{fill:#593156;}
	.st32{fill:#331E31;}
	.st33{fill:#AFD048;stroke:#6B9311;stroke-width:3;stroke-linecap:round;stroke-linejoin:round;stroke-miterlimit:10;}
	.st34{fill:none;stroke:#6B9311;stroke-linejoin:round;stroke-miterlimit:10;}
	.st35{fill:#B63E34;stroke:#522B25;stroke-miterlimit:10;}
	.st36{fill:none;stroke:#522B25;stroke-miterlimit:10;}
	.st37{fill:none;stroke:#522B25;stroke-width:3;stroke-miterlimit:10;}
	.st38{fill:#B63E34;}
	.st39{fill:#522B25;}
	.st40{fill:none;stroke:#40760E;stroke-width:3;stroke-linecap:round;stroke-linejoin:round;stroke-miterlimit:10;}
	.st41{fill:none;stroke:#40760E;stroke-linecap:round;stroke-linejoin:round;stroke-miterlimit:10;}
	.st42{fill:#A2CC62;stroke:#40760E;stroke-width:3;stroke-linecap:round;stroke-linejoin:round;stroke-miterlimit:10;}
	.st43{fill:#A2CC62;stroke:#40760E;stroke-linecap:round;stroke-linejoin:round;stroke-miterlimit:10;}
	.st44{fill:#9EC161;}
	.st45{fill:#40760E;}
	.st46{fill:#AFD048;stroke:#6B9311;stroke-width:3;stroke-linejoin:round;stroke-miterlimit:10;}
	.st47{fill:#663965;}
	.st48{fill:#9D610B;}
	.st49{fill:none;stroke:#A2690C;stroke-linecap:round;stroke-miterlimit:10;}
	.st50{fill:#6D4E2B;}
	.st51{fill:#CDA347;}
	.st52{fill:#7F500A;}
	.st53{fill:#F40000;stroke:#BA0D0D;stroke-miterlimit:10;}
	.st54{fill:#F40000;stroke:#B63E34;stroke-width:3;stroke-miterlimit:10;}
	.st55{fill:#F40000;stroke:#B63E34;stroke-miterlimit:10;}
	.st56{fill:#F40000;}
	.st57{fill:#990D0D;}
	.st58{fill:#B94850;stroke:#6C0A04;stroke-width:3;stroke-miterlimit:10;}
	.st59{fill:#CE8645;stroke:#CE8645;stroke-width:0.5;stroke-miterlimit:10;}
	.st60{fill:#6C0A04;stroke:#6C0A04;stroke-width:0.5;stroke-miterlimit:10;}
	.st61{fill:none;stroke:#6C0A04;stroke-linecap:round;stroke-miterlimit:10;}
	.st62{fill:#B94850;}
	.st63{fill:#CE8645;}
	.st64{fill:#6C0A04;}
	.st65{fill:#8C4F6F;}
	.st66{fill:#E7C456;}
	.st67{fill:#391A26;}
	.st68{fill:#E7C456;stroke:#AC5E17;stroke-width:3;stroke-miterlimit:10;}
	.st69{fill:#4F250E;stroke:#4F250E;stroke-width:0.5;stroke-miterlimit:10;}
	.st70{fill:none;stroke:#AC5E17;stroke-linecap:round;stroke-miterlimit:10;}
	.st71{fill:#4F250E;}
	.st72{fill:#995116;}
</style>
<g class="st0">
	<rect x="-302.7" y="-1325.8" class="st1" width="919.6" height="2155.1"/>
	<path class="st2" d="M616.4-1325.3V828.8h-918.6v-2154.1H616.4 M617.4-1326.3h-920.6V829.8h920.6V-1326.3L617.4-1326.3z"/>
</g>
<path class="st5" d="M38.7,9.2L38.7,9.2c-0.8,1.4-2.6,2-4,1.2l-1-0.6l1.4,9.6l-5.8,0.9L27.3,7.3C27,5.1,28.5,3,30.7,2.7l0,0
	c1.2-0.2,2.4,0,3.4,0.6l3.3,1.8C38.9,5.9,39.4,7.7,38.7,9.2z"/>
<path class="st30" d="M38.3,3.6L35,1.8c-1.4-0.7-3-1-4.5-0.8c-3.2,0.5-5.3,3.4-4.9,6.6l2.2,14.6l9.3-1.4l-1.2-8.4
	c0.5,0,1.1,0,1.6-0.2c1.2-0.4,2.2-1.1,2.8-2.2C41.4,7.7,40.6,4.9,38.3,3.6z M30.7,18.2L29,7.1c0.7,0,1.4,0.2,2,0.6L31.6,8l1.5,9.9
	L30.7,18.2z M31.4,6.6C30.7,6.2,29.9,6,29.1,6c0.3-0.8,1-1.4,1.8-1.5c0.2,0,0.4,0,0.5,0c0.6,0,1.2,0.2,1.8,0.5l3.3,1.8
	c0.6,0.3,0.8,1.1,0.5,1.7l0,0c-0.2,0.3-0.4,0.5-0.7,0.6C36.1,9,35.8,9,35.5,8.8C33.5,7.6,31.4,6.6,31.4,6.6z"/>
<path class="st56" d="M44.1,15.5c-3.1,0-5.5,1.1-7.5,2.6c-1.4-1.8-3-2.6-4.7-2.6c-1.8,0-3.4,0.9-4.8,2.8c-3.1-2.9-7.4-2.8-7.4-2.8
	c-5,0-11.4,7.3-11.4,23.2s6.4,23.2,11.4,23.2c0,0,4.1,0.1,7.5-2.6c1.3,1.7,2.9,2.6,4.6,2.6c2,0,3.8-1.1,5.2-3.5
	c1.8,2,4.1,3.5,6.9,3.5c5,0,11.4-7.3,11.4-23.2S49.1,15.5,44.1,15.5z"/>
<path class="st20" d="M13.4,33.7C13.4,33.7,13.4,33.7,13.4,33.7c-0.4,0-0.6-0.3-0.6-0.6c0.8-6.9,3-10.3,4.3-11.8
	c0.2-0.2,0.6-0.3,0.8-0.1c0.2,0.2,0.3,0.6,0.1,0.8c-1.2,1.3-3.2,4.5-4,11.1C14,33.4,13.7,33.7,13.4,33.7z"/>
<path class="st57" d="M44.1,13.8c-2.6,0-5,0.7-7.2,2.1c-1.8-1.7-3.6-2.1-4.9-2.1c-1.3,0-3.2,0.4-5,2.1c-3.3-2.2-7-2.1-7.1-2.1
	c-6.5,0-13.1,8.6-13.1,24.9s6.6,24.9,13.1,24.9c0,0,0,0,0.1,0c0.6,0,3.9-0.1,7.2-2c1.8,1.6,3.6,2,4.9,2c1.5,0,3.5-0.5,5.4-2.6
	c2,1.7,4.3,2.6,6.7,2.6c6.5,0,13.1-8.6,13.1-24.9S50.6,13.8,44.1,13.8z M32,61.3c-4.1,0-8.5-5.9-8.5-22.6s4.4-22.6,8.5-22.6
	s8.5,5.9,8.5,22.6S36.1,61.3,32,61.3z M19.9,60.1c-4,0-9.6-6.7-9.6-21.5c0-14.8,5.6-21.5,9.7-21.5c0,0,0,0,0,0
	c0.3,0,3.5,0.1,5.9,2.1c-2.2,4-3.5,10.7-3.5,19.3c0,8.8,1.3,15.5,3.6,19.6C23.1,60.2,19.9,60.1,19.9,60.1z M44.1,60.1
	c-2,0-3.8-0.9-5.6-2.9c2-4.1,3.1-10.4,3.1-18.6c0-8.8-1.3-15.4-3.5-19.5c1.8-1.3,3.8-2,6-2c4,0,9.6,6.7,9.6,21.5
	C53.8,53.5,48.1,60.1,44.1,60.1z"/>
<path class="st20" d="M45,28.7c-0.3,0-0.5-0.2-0.6-0.5c-0.3-2.1-0.7-4-1.2-5.7c-0.1-0.3,0.1-0.6,0.4-0.7c0.3-0.1,0.6,0.1,0.7,0.4
	c0.5,1.8,1,3.8,1.3,5.9C45.6,28.4,45.4,28.7,45,28.7C45,28.7,45,28.7,45,28.7z"/>
<path class="st20" d="M26.8,31.5C26.8,31.5,26.8,31.5,26.8,31.5c-0.4,0-0.6-0.3-0.6-0.6c0.7-6.2,2.1-9.2,3.2-10.7
	c0.2-0.3,0.5-0.3,0.8-0.1c0.3,0.2,0.3,0.5,0.1,0.8c-0.8,1.1-2.3,4-2.9,10.2C27.3,31.3,27.1,31.5,26.8,31.5z"/>
<circle class="st20" cx="26.7" cy="34.8" r="0.6"/>
<circle class="st20" cx="20.5" cy="20.1" r="0.6"/>
</svg>