<?xml version="1.0" encoding="utf-8"?>
<svg version="1.1" id="Layer_1" x="0px" y="0px" viewBox="0 0 64 64" style="enable-background:new 0 0 64 64;" xmlns="http://www.w3.org/2000/svg">
  <style type="text/css">
	.st0{display:none;}
	.st1{display:inline;fill:#D1A982;}
	.st2{display:inline;}
	.st3{fill:#AFD048;stroke:#6B9311;stroke-width:3;stroke-miterlimit:10;}
	.st4{fill:none;stroke:#6B9311;stroke-miterlimit:10;}
	.st5{fill:#AFD048;}
	.st6{fill:#F40000;stroke:#BA0D0D;stroke-width:3;stroke-miterlimit:10;}
	.st7{fill:none;stroke:#FFFFFF;stroke-linecap:round;stroke-linejoin:round;stroke-miterlimit:10;}
	.st8{fill:#CDA347;stroke:#A2690C;stroke-width:3;stroke-miterlimit:10;}
	.st9{fill:#A2CC62;}
	.st10{fill:#68664C;stroke:#522B25;stroke-width:3;stroke-linecap:round;stroke-linejoin:round;stroke-miterlimit:10;}
	.st11{fill:#B63E34;stroke:#522B25;stroke-width:3;stroke-miterlimit:10;}
	.st12{fill:#ADD481;}
	.st13{fill:#68664C;}
	.st14{fill:#593156;stroke:#331E31;stroke-width:3;stroke-miterlimit:10;}
	.st15{fill:none;stroke:#FFFFFF;stroke-linecap:round;stroke-miterlimit:10;}
	.st16{fill:#22B573;stroke:#184C28;stroke-width:3;stroke-linecap:round;stroke-linejoin:round;stroke-miterlimit:10;}
	.st17{fill:#EE0000;}
	.st18{fill:#9A0601;}
	.st19{fill:#EE0000;stroke:#9A0601;stroke-linecap:round;stroke-linejoin:round;stroke-miterlimit:10;}
	.st20{fill:#FFFFFF;}
	.st21{clip-path:url(#SVGID_2_);}
	.st22{fill:#00FFFF;}
	.st23{fill:#456A0A;}
	.st24{fill:#183300;}
	.st25{fill:#88A501;}
	.st26{fill:#3B6700;}
	.st27{fill:#FC4100;}
	.st28{fill:#9F0500;}
	.st29{fill:none;stroke:#6B9311;stroke-width:3;stroke-linecap:round;stroke-miterlimit:10;}
	.st30{fill:#6B9311;}
	.st31{fill:#593156;}
	.st32{fill:#331E31;}
	.st33{fill:#AFD048;stroke:#6B9311;stroke-width:3;stroke-linecap:round;stroke-linejoin:round;stroke-miterlimit:10;}
	.st34{fill:none;stroke:#6B9311;stroke-linejoin:round;stroke-miterlimit:10;}
	.st35{fill:#B63E34;stroke:#522B25;stroke-miterlimit:10;}
	.st36{fill:none;stroke:#522B25;stroke-miterlimit:10;}
	.st37{fill:none;stroke:#522B25;stroke-width:3;stroke-miterlimit:10;}
	.st38{fill:#B63E34;}
	.st39{fill:#522B25;}
	.st40{fill:none;stroke:#40760E;stroke-width:3;stroke-linecap:round;stroke-linejoin:round;stroke-miterlimit:10;}
	.st41{fill:none;stroke:#40760E;stroke-linecap:round;stroke-linejoin:round;stroke-miterlimit:10;}
	.st42{fill:#A2CC62;stroke:#40760E;stroke-width:3;stroke-linecap:round;stroke-linejoin:round;stroke-miterlimit:10;}
	.st43{fill:#A2CC62;stroke:#40760E;stroke-linecap:round;stroke-linejoin:round;stroke-miterlimit:10;}
	.st44{fill:#9EC161;}
	.st45{fill:#40760E;}
	.st46{fill:#AFD048;stroke:#6B9311;stroke-width:3;stroke-linejoin:round;stroke-miterlimit:10;}
	.st47{fill:#663965;}
	.st48{fill:#9D610B;}
	.st49{fill:none;stroke:#A2690C;stroke-linecap:round;stroke-miterlimit:10;}
	.st50{fill:#6D4E2B;}
	.st51{fill:#CDA347;}
	.st52{fill:#7F500A;}
	.st53{fill:#F40000;stroke:#BA0D0D;stroke-miterlimit:10;}
	.st54{fill:#F40000;stroke:#B63E34;stroke-width:3;stroke-miterlimit:10;}
	.st55{fill:#F40000;stroke:#B63E34;stroke-miterlimit:10;}
	.st56{fill:#F40000;}
	.st57{fill:#990D0D;}
	.st58{fill:#B94850;stroke:#6C0A04;stroke-width:3;stroke-miterlimit:10;}
	.st59{fill:#CE8645;stroke:#CE8645;stroke-width:0.5;stroke-miterlimit:10;}
	.st60{fill:#6C0A04;stroke:#6C0A04;stroke-width:0.5;stroke-miterlimit:10;}
	.st61{fill:none;stroke:#6C0A04;stroke-linecap:round;stroke-miterlimit:10;}
	.st62{fill:#B94850;}
	.st63{fill:#CE8645;}
	.st64{fill:#6C0A04;}
	.st65{fill:#8C4F6F;}
	.st66{fill:#E7C456;}
	.st67{fill:#391A26;}
	.st68{fill:#E7C456;stroke:#AC5E17;stroke-width:3;stroke-miterlimit:10;}
	.st69{fill:#4F250E;stroke:#4F250E;stroke-width:0.5;stroke-miterlimit:10;}
	.st70{fill:none;stroke:#AC5E17;stroke-linecap:round;stroke-miterlimit:10;}
	.st71{fill:#4F250E;}
	.st72{fill:#995116;}
</style>
  <g class="st0">
    <rect x="-444.2" y="-789.8" class="st1" width="919.6" height="2155.1"/>
    <path class="st2" d="M475-789.3v2154.1h-918.6V-789.3H475 M476-790.3h-920.6v2156.1H476V-790.3L476-790.3z"/>
  </g>
  <path class="st51" d="M 47.5 16.616 C 55 16.616 61.1 23.317 61.1 31.476 C 61.1 37.982 57.3 43.421 52 45.46 C 47.5 47.694 40.3 49.054 32.2 49.054 C 24.9 49.054 18.3 47.888 13.8 46.043 C 7.4 43.712 2.8 37.593 2.8 30.407 C 2.8 21.181 10.3 13.8 19.5 13.8 C 19.5 13.8 22.3 13.703 26.1 14.868 C 32 16.519 40.1 16.616 47.5 16.616 Z" style="fill: rgb(221, 154, 183);"/>
  <path class="st52" d="M 47.5 15.113 C 41.2 15.113 32.5 15.113 26.6 13.466 C 22.6 12.303 19.6 12.4 19.5 12.4 C 9.5 12.4 1.3 20.539 1.3 30.422 C 1.3 37.98 6.1 44.86 13.2 47.379 C 18 49.316 24.9 50.48 32.1 50.48 C 40.2 50.48 47.6 49.122 52.5 46.7 C 58.5 44.375 62.5 38.271 62.5 31.391 C 62.6 22.38 55.8 15.113 47.5 15.113 Z M 51.4 43.988 L 51.3 44.084 C 46.9 46.216 39.7 47.572 32.2 47.572 C 28 47.572 23.8 47.185 20.2 46.41 C 23.4 46.216 26.4 45.053 29 43.115 C 29.2 42.922 29.3 42.631 29.1 42.438 C 28.9 42.243 28.6 42.146 28.4 42.34 C 25.7 44.375 22.5 45.441 19.1 45.441 C 17.6 45.441 16.1 45.247 14.7 44.762 C 14.6 44.665 14.4 44.665 14.3 44.568 C 8.3 42.438 4.3 36.721 4.3 30.325 C 4.3 21.993 11.1 15.21 19.5 15.21 C 19.5 15.21 19.5 15.21 19.6 15.21 C 20 15.21 22.4 15.21 25.7 16.179 C 31.5 17.826 39 18.02 47.4 18.02 C 54.1 18.02 59.5 24.027 59.5 31.391 C 59.6 37.108 56.3 42.146 51.4 43.988 Z" style="fill: rgb(104, 57, 1);"/>
  <g transform="matrix(1, 0, 0, 1, 0, 2.572207)">
    <circle class="st50" cx="25.8" cy="31.6" r="0.8" style="fill: rgb(104, 57, 1);"/>
    <circle class="st50" cx="17.8" cy="22.6" r="0.8" style="fill: rgb(104, 57, 1);"/>
    <circle class="st50" cx="31.8" cy="34.6" r="0.8" style="fill: rgb(104, 57, 1);"/>
    <ellipse transform="matrix(0.100702, -0.994917, 0.994917, 0.100702, 7.590947, 55.702937)" class="st50" cx="34.6" cy="23.7" rx="0.8" ry="0.8" style="fill: rgb(104, 57, 1);"/>
    <ellipse transform="matrix(0.100702, -0.994917, 0.994917, 0.100702, 15.356252, 62.200863)" class="st50" cx="42.1" cy="22.6" rx="0.8" ry="0.8" style="fill: rgb(104, 57, 1);"/>
    <circle class="st50" cx="43.056" cy="37.433" r="0.8" style="fill: rgb(104, 57, 1);"/>
    <circle class="st50" cx="45.8" cy="32.6" r="0.8" style="fill: rgb(104, 57, 1);"/>
    <circle class="st50" cx="53.8" cy="34.6" r="0.8" style="fill: rgb(104, 57, 1);"/>
    <circle class="st50" cx="9.3" cy="29.4" r="0.8" style="fill: rgb(104, 57, 1);"/>
    <circle class="st50" cx="16.224" cy="35.156" r="0.8" style="fill: rgb(104, 57, 1);"/>
  </g>
</svg>