<?xml version="1.0" encoding="utf-8"?>
<!-- Generator: Adobe Illustrator 20.0.0, SVG Export Plug-In . SVG Version: 6.00 Build 0)  -->
<svg version="1.1" id="Layer_1" xmlns="http://www.w3.org/2000/svg" xmlns:xlink="http://www.w3.org/1999/xlink" x="0px" y="0px"
	 viewBox="0 0 64 64" style="enable-background:new 0 0 64 64;" xml:space="preserve">
<style type="text/css">
	.st0{fill:#D0A679;}
	.st1{fill:#CDA973;stroke:#A5794A;stroke-width:3;stroke-miterlimit:10;}
	.st2{fill:#E0C9BB;stroke:#68763A;stroke-width:3;stroke-linecap:round;stroke-miterlimit:10;}
	.st3{fill:none;stroke:#C69C6D;stroke-width:3;stroke-miterlimit:10;}
	.st4{fill:none;stroke:#699273;stroke-width:3;stroke-miterlimit:10;}
	.st5{fill:#689946;}
	.st6{fill:none;stroke:#689946;stroke-width:3;stroke-miterlimit:10;}
	.st7{fill:#00FFFF;}
	.st8{fill:#54665F;}
	.st9{fill:#434D42;}
	.st10{fill:#54665F;stroke:#434D42;stroke-width:2;stroke-linecap:round;stroke-linejoin:round;stroke-miterlimit:10;}
	.st11{fill:#748C8B;}
	.st12{fill:#EFC11E;}
	.st13{fill:none;stroke:#434D42;stroke-linecap:round;stroke-linejoin:round;stroke-miterlimit:10;}
	.st14{fill:none;stroke:#FFFFFF;stroke-linecap:round;stroke-linejoin:round;stroke-miterlimit:10;}
	.st15{fill:#748C8B;stroke:#434D42;stroke-linecap:round;stroke-linejoin:round;stroke-miterlimit:10;}
	.st16{fill:#FFFFFF;}
	.st17{fill:#EFFE99;stroke:#3E4A14;stroke-width:3;stroke-miterlimit:10;}
	.st18{clip-path:url(#SVGID_2_);}
	.st19{fill:none;stroke:#3E4A14;stroke-width:3;stroke-miterlimit:10;}
	.st20{fill:none;stroke:#FFFFFF;stroke-linecap:round;stroke-miterlimit:10;}
	.st21{fill:#EFFE99;}
	.st22{fill:#3E4A14;}
	.st23{fill:#F1C06D;}
	.st24{clip-path:url(#SVGID_4_);}
	.st25{clip-path:url(#SVGID_6_);}
	.st26{fill:none;stroke:#E4D9C8;stroke-linecap:round;stroke-linejoin:round;}
	.st27{clip-path:url(#SVGID_8_);}
	.st28{clip-path:url(#SVGID_10_);}
	.st29{clip-path:url(#SVGID_12_);}
	.st30{clip-path:url(#SVGID_14_);}
	.st31{clip-path:url(#SVGID_16_);}
	.st32{fill:#DED1C8;}
	.st33{clip-path:url(#SVGID_18_);}
	.st34{clip-path:url(#SVGID_20_);}
	.st35{clip-path:url(#SVGID_22_);}
	.st36{fill:none;stroke:#C6A06A;stroke-width:2;stroke-miterlimit:10;}
	.st37{fill:#699273;}
	.st38{clip-path:url(#SVGID_24_);}
	.st39{fill:#E4D9C8;}
	.st40{clip-path:url(#SVGID_26_);fill:#E4D9C8;}
	.st41{clip-path:url(#SVGID_28_);fill:#E4D9C8;}
	.st42{fill:#C6A06A;}
	.st43{fill:none;stroke:#C8CF80;stroke-width:3;stroke-miterlimit:10;}
	.st44{fill:#CEE5D9;}
	.st45{fill:none;stroke:#86C1A7;stroke-width:3;stroke-linecap:round;stroke-miterlimit:10;}
	.st46{fill:none;stroke:#86C1A7;stroke-linecap:round;stroke-miterlimit:10;}
	.st47{fill:#86C1A7;}
	.st48{fill:#CFE2CF;}
	.st49{fill:#C8CF80;}
	.st50{fill:#86BF95;}
	.st51{fill:none;stroke:#86BF95;stroke-width:3;stroke-linecap:round;stroke-miterlimit:10;}
	.st52{fill:none;stroke:#86BF95;stroke-linecap:round;stroke-miterlimit:10;}
	.st53{fill:#ECEE9A;stroke:#699273;stroke-linecap:round;stroke-miterlimit:10;}
	.st54{fill:none;stroke:#699273;stroke-width:3;stroke-linecap:round;stroke-miterlimit:10;}
	.st55{fill:#C69C6D;}
	.st56{fill:#ECEE9A;}
	.st57{clip-path:url(#SVGID_30_);}
	.st58{fill:#2F7B1D;stroke:#0A4D2C;stroke-width:3;stroke-miterlimit:10;}
	.st59{fill:#2F7B1D;stroke:#0A4D2C;stroke-linecap:round;stroke-miterlimit:10;}
	.st60{fill:#2F7B1D;stroke:#81AF5B;stroke-linecap:round;stroke-miterlimit:10;}
	.st61{fill:#81AF5B;}
	.st62{fill:#2F7B1D;}
	.st63{fill:#0A4D2C;}
	.st64{fill:#FFE706;}
	.st65{fill:#D3A700;}
	.st66{fill:none;stroke:#D3A700;stroke-linecap:round;stroke-miterlimit:10;}
	.st67{fill:#FA8D1B;stroke:#D2614D;stroke-width:3;stroke-miterlimit:10;}
	.st68{fill:#FA8D1B;stroke:#D2614D;stroke-linecap:round;stroke-miterlimit:10;}
	.st69{fill:#E0C9BB;}
	.st70{fill:#FA8D1B;}
	.st71{fill:#68763A;}
	.st72{fill:#D2614D;}
	.st73{fill:#5D685D;stroke:#4A544B;stroke-width:3;stroke-linecap:round;stroke-miterlimit:10;}
	.st74{fill:none;stroke:#979B83;stroke-linecap:round;stroke-miterlimit:10;}
	.st75{fill:none;stroke:#4A544B;stroke-width:3;stroke-linecap:round;stroke-miterlimit:10;}
	.st76{fill:#F4E400;stroke:#DFBE00;stroke-width:3;stroke-miterlimit:10;}
	.st77{fill:#F4E400;stroke:#DFBE00;stroke-linecap:round;stroke-miterlimit:10;}
	.st78{fill:#FDDC6C;stroke:#0A4D2C;stroke-width:3;stroke-miterlimit:10;}
	.st79{fill:#FDDC6C;stroke:#0A4D2C;stroke-miterlimit:10;}
	.st80{fill:#FDDC6C;stroke:#0A4D2C;stroke-linecap:round;stroke-miterlimit:10;}
	.st81{fill:#FDDC6C;stroke:#FFFFFF;stroke-linecap:round;stroke-miterlimit:10;}
	.st82{fill:#CDA973;}
	.st83{fill:#A5794A;}
	.st84{fill:#FDDC6C;}
	.st85{fill:#F4E400;}
	.st86{fill:#DFBE00;}
	.st87{fill:#5D685D;}
	.st88{fill:#4A544B;}
	.st89{fill:#979B83;}
	.st90{fill:#FDCC89;}
	.st91{fill:#FDCC89;stroke:#D0A679;stroke-linecap:round;stroke-miterlimit:10;}
	.st92{fill:#F3CF47;stroke:#D3A700;stroke-linecap:round;stroke-linejoin:round;stroke-miterlimit:10;}
	.st93{fill:#F3CF47;stroke:#FFFFFF;stroke-linecap:round;stroke-linejoin:round;stroke-miterlimit:10;}
	.st94{fill:none;stroke:#D3A700;stroke-miterlimit:10;}
	.st95{fill:#81AF5B;stroke:#2F7B1D;stroke-width:3;stroke-linecap:round;stroke-linejoin:round;stroke-miterlimit:10;}
	.st96{fill:#F3CF47;}
	.st97{fill:#81AF5B;stroke:#0A4D2C;stroke-width:3;stroke-linecap:round;stroke-miterlimit:10;}
</style>
<path class="st64" d="M12,61.5c-2.7,0-5.1-1-7-2.9c-2.5-2.5-3.4-5.8-2.7-9.5c0.9-4.4,4-9.4,9.1-14.5c4.4-4.4,9.9-8.7,15.4-12.3
	C40.1,14,48,6.5,48.4,6.2c1.3-1.3,2.6-1.9,4-1.9c2.3,0,4.4,1.7,5.5,2.8c2.9,2.9,3.2,4.8,1.4,8.1c-0.1,0.1-11.2,18.4-30.2,37
	C22.9,58.3,17,61.5,12,61.5z"/>
<path class="st65" d="M52.3,5.8L52.3,5.8c1.9,0,3.7,1.6,4.4,2.3c2.5,2.5,2.5,3.7,1.2,6.3C57.2,15.7,46.3,33.3,28,51.2
	C20.5,58.5,15.2,60,12,60c-2.3,0-4.3-0.8-5.9-2.4c-2.1-2.1-2.9-4.9-2.3-8.2c0.8-4.1,3.8-8.8,8.7-13.7c4.3-4.3,9.7-8.6,15.2-12.1
	C41,15.2,49.1,7.6,49.4,7.2l0,0l0,0C50.4,6.2,51.4,5.8,52.3,5.8 M52.3,2.8c-1.6,0-3.3,0.6-5,2.3c0,0-8,7.6-21.3,16
	c-5.3,3.4-11,7.8-15.7,12.5C-0.9,44.9-1.4,54.3,4,59.7c2.1,2.1,4.8,3.3,8,3.3c5,0,11.1-2.9,18.1-9.7c19.4-19,30.4-37.4,30.4-37.4
	c2.1-4,1.6-6.6-1.7-9.9C57.4,4.5,55,2.8,52.3,2.8L52.3,2.8z"/>
<path class="st16" d="M19,33c-0.1,0-0.3-0.1-0.4-0.2c-0.2-0.2-0.2-0.5,0.1-0.7c3.1-2.6,6.5-5.1,9.8-7.2c0.2-0.1,0.5-0.1,0.7,0.2
	c0.1,0.2,0.1,0.5-0.2,0.7c-3.3,2.1-6.7,4.6-9.7,7.2C19.2,33,19.1,33,19,33z"/>
<path class="st16" d="M40.7,17.5c-0.2,0-0.3-0.1-0.4-0.2c-0.2-0.2-0.1-0.5,0.1-0.7c2.4-1.8,4.7-3.6,6.8-5.4c0.2-0.2,0.5-0.2,0.7,0.1
	c0.2,0.2,0.2,0.5-0.1,0.7c-2.1,1.8-4.4,3.6-6.8,5.5C40.9,17.5,40.8,17.5,40.7,17.5z"/>
<path class="st65" d="M18.2,51.8c-0.1,0-0.3,0-0.4-0.1c-0.2-0.2-0.2-0.5,0-0.7c2.4-2.4,4.9-4.9,7.4-7.4c0.2-0.2,0.5-0.2,0.7,0
	s0.2,0.5,0,0.7c-2.5,2.5-4.9,5-7.4,7.4C18.5,51.8,18.3,51.8,18.2,51.8z"/>
<path class="st65" d="M38.8,30.5c-0.1,0-0.2,0-0.3-0.1c-0.2-0.2-0.2-0.5,0-0.7c2.8-3,5.4-5.9,7.9-8.6c0.2-0.2,0.5-0.2,0.7,0
	c0.2,0.2,0.2,0.5,0,0.7c-2.5,2.8-5.1,5.7-7.9,8.6C39.1,30.4,39,30.5,38.8,30.5z"/>
<path class="st65" d="M18,41.9c-0.1,0-0.3-0.1-0.4-0.2c-0.2-0.2-0.2-0.5,0-0.7c3.2-3,6.5-6.1,9.7-8.8c3.1-2.7,6.2-5.5,9.3-8.3
	c0.2-0.2,0.5-0.2,0.7,0c0.2,0.2,0.2,0.5,0,0.7c-3.1,2.8-6.2,5.6-9.3,8.3c-3.2,2.8-6.5,5.8-9.6,8.8C18.3,41.9,18.1,41.9,18,41.9z"/>
<path class="st16" d="M29.1,34.5c-0.1,0-0.3-0.1-0.4-0.2c-0.2-0.2-0.2-0.5,0-0.7c1.6-1.4,3.1-2.8,4.6-4.1c0.2-0.2,0.5-0.2,0.7,0
	c0.2,0.2,0.2,0.5,0,0.7c-1.5,1.3-3,2.7-4.6,4.1C29.3,34.5,29.2,34.5,29.1,34.5z"/>
<ellipse transform="matrix(0.7071 -0.7071 0.7071 0.7071 -6.9745 29.4103)" class="st16" cx="32" cy="23.1" rx="0.5" ry="0.5"/>
<path class="st61" d="M59.4,9.3C56,8.3,54.5,5.8,54,4.7l3.6-2l3.3,2.8L59.4,9.3z"/>
<path class="st63" d="M59.6,10.9c-0.2,0-0.4,0-0.7-0.1l0,0c-4-1.2-5.8-4.2-6.3-5.4c-0.5-0.9-0.2-2.1,0.7-2.7l1.6-1.2
	c1.1-0.8,2.6-0.8,3.7,0.1l3.3,2.8c1,0.9,1.3,2.4,0.7,3.6l-0.9,1.7C61.2,10.4,60.4,10.9,59.6,10.9z M59.9,7.9L59.9,7.9L59.9,7.9z
	 M55.6,4.6c0.6,0.9,1.7,2.3,3.6,3.1l0.6-1.1l-3.3-2.7L55.6,4.6z M55.1,5L55.1,5C55.1,5,55.1,5,55.1,5z"/>
</svg>